<svg xmlns="http://www.w3.org/2000/svg" xmlns:xlink="http://www.w3.org/1999/xlink" version="1.1" width="256" height="256" viewBox="0 0 256 256" xml:space="preserve">

<defs>
</defs>
<g style="stroke: none; stroke-width: 0; stroke-dasharray: none; stroke-linecap: butt; stroke-linejoin: miter; stroke-miterlimit: 10; fill: none; fill-rule: nonzero; opacity: 1;" transform="translate(1.4065934065934016 1.4065934065934016) scale(2.81 2.81)" >
	<path d="M 72.368 26.852 l -26.57 -26.57 c -0.375 -0.375 -1.039 -0.375 -1.414 0 l -26.57 26.57 c -0.721 0.721 -1.118 1.679 -1.118 2.699 c 0 1.02 0.397 1.978 1.118 2.699 c 0.744 0.744 1.721 1.116 2.699 1.116 c 0.977 0 1.954 -0.372 2.699 -1.116 l 0.79 -0.79 v 11.859 c 0 0.552 0.448 1 1 1 s 1 -0.448 1 -1 V 29.459 L 45.091 10.37 L 64.18 29.459 v 13.859 c 0 0.552 0.447 1 1 1 c 0.553 0 1 -0.448 1 -1 V 31.46 l 0.79 0.79 c 1.488 1.488 3.909 1.488 5.397 0 C 73.856 30.761 73.856 28.34 72.368 26.852 z M 70.954 30.836 c -0.709 0.708 -1.86 0.708 -2.569 0 L 45.798 8.249 c -0.391 -0.391 -1.024 -0.391 -1.414 0 L 21.798 30.836 c -0.707 0.709 -1.86 0.709 -2.57 0 c -0.708 -0.709 -0.708 -1.862 0 -2.57 L 45.091 2.403 l 25.863 25.863 C 71.662 28.974 71.662 30.127 70.954 30.836 z" style="stroke: none; stroke-width: 1; stroke-dasharray: none; stroke-linecap: butt; stroke-linejoin: miter; stroke-miterlimit: 10; fill: rgb(0,0,0); fill-rule: nonzero; opacity: 1;" transform=" matrix(1 0 0 1 0 0) " stroke-linecap="round" />
	<path d="M 51.558 44.319 c -0.553 0 -1 -0.448 -1 -1 v -8.721 H 39.443 v 8.721 c 0 0.552 -0.448 1 -1 1 s -1 -0.448 -1 -1 v -9.721 c 0 -0.552 0.448 -1 1 -1 h 13.115 c 0.553 0 1 0.448 1 1 v 9.721 C 52.558 43.871 52.111 44.319 51.558 44.319 z" style="stroke: none; stroke-width: 1; stroke-dasharray: none; stroke-linecap: butt; stroke-linejoin: miter; stroke-miterlimit: 10; fill: rgb(0,0,0); fill-rule: nonzero; opacity: 1;" transform=" matrix(1 0 0 1 0 0) " stroke-linecap="round" />
	<path d="M 79.602 45.646 c -0.198 -0.188 -0.467 -0.29 -0.739 -0.274 c -5.007 0.248 -10.445 1.08 -17.111 2.618 c -0.272 0.063 -0.504 0.235 -0.643 0.477 c -0.139 0.24 -0.17 0.528 -0.088 0.794 l 0.506 1.635 c -4.898 -1.765 -11.601 -2.763 -17.415 -2.543 c -2.208 0 -4.724 1.086 -7.028 2.699 h -8.662 l 0.555 -1.79 c 0.083 -0.266 0.05 -0.554 -0.088 -0.794 c -0.138 -0.241 -0.371 -0.414 -0.642 -0.477 c -6.666 -1.538 -12.103 -2.37 -17.112 -2.618 c -0.271 -0.018 -0.54 0.085 -0.739 0.274 c -0.198 0.189 -0.311 0.451 -0.311 0.725 V 72.84 c 0 0.553 0.448 1 1 1 h 9.541 c 0.439 0 0.826 -0.285 0.955 -0.704 l 0.241 -0.778 c 7.802 9.07 15.72 17.321 21.981 17.321 c 1.177 0 2.292 -0.309 3.341 -0.942 l 0.043 0.043 c 0.771 0.78 1.803 1.214 2.905 1.221 c 0.01 0 0.019 0 0.027 0 c 1.093 0 2.119 -0.42 2.894 -1.186 c 0.577 -0.57 0.941 -1.272 1.109 -2.009 c 0.694 0.47 1.5 0.708 2.307 0.708 c 1.047 0 2.094 -0.396 2.896 -1.188 c 0.824 -0.814 1.227 -1.894 1.216 -2.971 c 0.26 0.045 0.523 0.075 0.785 0.075 c 1.048 0 2.074 -0.363 2.819 -1.099 c 1.615 -1.596 1.631 -4.21 0.101 -5.754 c -0.228 -0.28 -0.464 -0.549 -0.694 -0.826 l 4.774 -2.906 l 0.09 0.291 c 0.13 0.419 0.517 0.704 0.955 0.704 h 9.54 c 0.553 0 1 -0.447 1 -1 V 46.37 C 79.913 46.097 79.801 45.835 79.602 45.646 z M 12.087 71.839 V 47.43 c 4.334 0.283 9.046 1.014 14.661 2.27 l -6.857 22.14 H 12.087 z M 62.741 80.909 c -0.375 0.371 -0.926 0.56 -1.545 0.521 c -0.63 -0.037 -1.229 -0.299 -1.643 -0.718 c -0.012 -0.012 -0.029 -0.016 -0.041 -0.028 c -0.053 -0.06 -0.092 -0.128 -0.149 -0.185 l -8.441 -8.543 c -0.388 -0.392 -1.021 -0.398 -1.414 -0.008 c -0.393 0.388 -0.397 1.021 -0.008 1.414 l 8.44 8.542 c 0.821 0.832 0.814 2.177 -0.018 2.998 c -0.832 0.82 -2.176 0.814 -2.998 -0.019 l -1.868 -1.89 c -0.002 -0.002 -0.003 -0.004 -0.004 -0.005 l -8.441 -8.544 c -0.389 -0.392 -1.022 -0.398 -1.414 -0.008 c -0.393 0.388 -0.397 1.021 -0.009 1.414 l 8.441 8.544 c 0.82 0.831 0.813 2.175 -0.02 2.997 c -0.831 0.821 -2.175 0.814 -2.997 -0.02 l -10.312 -10.44 c -0.389 -0.392 -1.021 -0.398 -1.414 -0.008 c -0.393 0.388 -0.397 1.021 -0.009 1.414 l 8.805 8.913 c -5.596 2.513 -14.802 -7.374 -23.158 -17.152 l 5.281 -17.05 h 6.823 c -1.948 1.815 -3.541 3.91 -4.335 5.837 c -0.877 2.127 -0.716 3.938 0.453 5.098 c 0.026 0.026 0.054 0.051 0.084 0.074 c 2.637 2.089 5.754 3.312 10.656 -1.704 c 1.485 0.075 2.768 -0.181 3.89 -0.785 c 6.34 4.449 12.166 9.921 17.385 16.34 C 63.581 78.743 63.572 80.088 62.741 80.909 z M 62.251 74.202 c -4.918 -5.665 -10.38 -10.584 -16.272 -14.648 c -0.342 -0.236 -0.793 -0.236 -1.134 -0.001 c -0.973 0.668 -2.17 0.923 -3.658 0.774 c -0.314 -0.03 -0.615 0.084 -0.827 0.311 c -4.17 4.437 -6.132 3.554 -8.24 1.893 c -0.668 -0.713 -0.359 -1.956 0.021 -2.881 c 1.673 -4.06 7.779 -9.297 12.01 -9.298 c 6.229 -0.241 13.436 0.962 18.136 2.998 l 5.429 17.525 L 62.251 74.202 z M 77.913 71.839 H 70.11 L 63.252 49.7 c 5.616 -1.256 10.328 -1.987 14.661 -2.27 V 71.839 z" style="stroke: none; stroke-width: 1; stroke-dasharray: none; stroke-linecap: butt; stroke-linejoin: miter; stroke-miterlimit: 10; fill: rgb(0,0,0); fill-rule: nonzero; opacity: 1;" transform=" matrix(1 0 0 1 0 0) " stroke-linecap="round" />
</g>
</svg>